<svg viewBox="0 0 256 256" role="img" xmlns="http://www.w3.org/2000/svg">
  <title>Local Flight mark</title>
  <defs>
    <linearGradient id="mark-bg" x1="42" y1="22" x2="214" y2="230" gradientUnits="userSpaceOnUse">
      <stop offset="0" stop-color="#143554"/>
      <stop offset="1" stop-color="#07111b"/>
    </linearGradient>
    <linearGradient id="mark-line" x1="64" y1="88" x2="198" y2="188" gradientUnits="userSpaceOnUse">
      <stop offset="0" stop-color="#7ce7ff"/>
      <stop offset="1" stop-color="#4a9eda"/>
    </linearGradient>
  </defs>
  <rect x="16" y="16" width="224" height="224" rx="54" fill="url(#mark-bg)"/>
  <rect x="16" y="16" width="224" height="224" rx="54" fill="none" stroke="#2c6d9d" stroke-opacity=".55" stroke-width="6"/>
  <path d="M55 164h146" stroke="#214361" stroke-width="4" stroke-linecap="round"/>
  <path d="M63 188h130" stroke="#183047" stroke-width="3" stroke-linecap="round"/>
  <g transform="translate(128 104) rotate(-18)">
    <path d="M-5 27c4-18 4-44 5-78 1 34 1 60 5 78-3-2-7-2-10 0Z" fill="#f1f7ff"/>
    <path d="M-54 7c24-7 40-7 54-4 14-3 30-3 54 4-22 8-38 9-54 7-16 2-32 1-54-7Z" fill="#c9ddf4"/>
    <path d="M-25 24c12-6 17-7 25-6 8-1 13 0 25 6-10 4-17 5-25 4-8 1-15 0-25-4Z" fill="#a9c7e8"/>
  </g>
  <rect x="54" y="149" width="148" height="5" rx="2.5" fill="url(#mark-line)"/>
  <circle cx="76" cy="151.5" r="5" fill="#00c040"/>
  <circle cx="128" cy="151.5" r="5" fill="#4a9eda"/>
  <circle cx="180" cy="151.5" r="5" fill="#f0b429"/>
</svg>
